<?xml version="1.0" encoding="iso-8859-1"?>
<!-- Uploaded to: SVG Repo, www.svgrepo.com, Generator: SVG Repo Mixer Tools -->
<svg version="1.1" id="Layer_1" xmlns="http://www.w3.org/2000/svg" xmlns:xlink="http://www.w3.org/1999/xlink" 
	 viewBox="0 0 473.935 473.935" xml:space="preserve">
<circle style="fill:#E12D2D;" cx="236.967" cy="236.967" r="236.967"/>
<path style="fill:#000000;" d="M159.932,388.529c0,7.933-6.432,14.368-14.361,14.368h-13.141c-7.929,0-14.361-6.436-14.361-14.368
	V85.38c0-7.936,6.432-14.368,14.361-14.368h13.141c7.929,0,14.361,6.432,14.361,14.368V388.529z"/>
<circle style="fill:#E3DD2A ;stroke:#FFFFFF;stroke-width:3;" cx="138.446" cy="133.634" r="31.738"/>
<path style="fill:#000000;" d="M258.438,388.529c0,7.933-6.432,14.368-14.361,14.368h-13.141c-7.929,0-14.361-6.436-14.361-14.368
	V85.38c0-7.936,6.432-14.368,14.361-14.368h13.141c7.929,0,14.361,6.432,14.361,14.368V388.529z"/>
<circle style="fill:#E3DD2A ;stroke:#FFFFFF;stroke-width:3;" cx="236.967" cy="330.662" r="31.738"/>
<path style="fill:#000000;" d="M356.944,388.529c0,7.933-6.432,14.368-14.361,14.368h-13.141c-7.929,0-14.361-6.436-14.361-14.368
	V85.38c0-7.936,6.432-14.368,14.361-14.368h13.141c7.929,0,14.361,6.432,14.361,14.368V388.529z"/>
<circle style="fill:#E3DD2A ;stroke:#FFFFFF;stroke-width:3;" cx="335.451" cy="199.288" r="31.738"/>
</svg>